<?xml version="1.0" standalone="no"?>
<!DOCTYPE svg PUBLIC "-//W3C//DTD SVG 1.1//EN" "http://www.w3.org/Graphics/SVG/1.1/DTD/svg11.dtd" >
<!--
2013-9-30: Created.
-->
<svg>
<metadata>
Created by iconfont
</metadata>
<defs>

<font id="iconfont" horiz-adv-x="1024" >
  <font-face
    font-family="iconfont"
    font-weight="500"
    font-stretch="normal"
    units-per-em="1024"
    ascent="896"
    descent="-128"
  />
    <missing-glyph />
    
    <glyph glyph-name="gengduo" unicode="&#58987;" d="M908.62592 260.481024c-63.684608 0-115.331072 53.884928-115.331072 120.43264 0 66.54976 51.648512 120.471552 115.331072 120.471552 63.688704 0 115.37408-53.921792 115.37408-120.471552C1024 314.363904 972.314624 260.481024 908.62592 260.481024zM511.95904 260.481024c-63.684608 0-115.331072 53.884928-115.331072 120.43264 0 66.54976 51.646464 120.471552 115.331072 120.471552 63.725568 0 115.37408-53.921792 115.37408-120.471552C627.33312 314.363904 575.686656 260.481024 511.95904 260.481024zM115.33312 260.481024C51.607552 260.481024 0 314.363904 0 380.911616c0 66.54976 51.607552 120.471552 115.33312 120.471552 63.686656 0 115.33312-53.921792 115.33312-120.471552C230.66624 314.363904 179.019776 260.481024 115.33312 260.481024z"  horiz-adv-x="1024" />

    
    <glyph glyph-name="kejian" unicode="&#58899;" d="M896.116401 384.002047c-50.682309 78.345346-114.200972 136.938835-190.558034 175.780469 20.340257-34.525328 30.509874-71.872934 30.509874-112.041796 0-61.414745-21.923312-113.949238-65.769936-157.604504-43.845601-43.655266-96.612385-65.482387-158.298306-65.482387-61.685921 0.001023-114.451682 21.828145-158.298306 65.482387-43.846624 43.653219-65.769936 96.188736-65.769936 157.604504 0 40.168862 10.17064 77.516468 30.509874 112.041796-76.356039-38.841633-139.875724-97.4341-190.558034-175.780469 44.345997-68.054979 99.946316-122.249275 166.799934-162.584935 66.853617-40.33566 139.29244-60.502979 217.316467-60.501956 78.024028 0.001023 150.46285 20.168342 217.316467 60.501956C796.171108 261.750725 851.770404 315.946045 896.116401 384.002047zM536.006763 575.218066c0 6.640234-2.334161 12.283768-7.001461 16.930601-4.6673 4.647857-10.335393 6.971785-17.005302 6.971785-41.679261 0-77.43972-14.856359-107.282399-44.567032-29.841655-29.711695-44.763506-65.315588-44.763506-106.812701 0-6.639211 2.333138-12.282744 7.001461-16.929578 4.6673-4.647857 10.335393-6.970762 17.005302-6.970762 6.668886-0.001023 12.33698 2.323928 17.005302 6.970762 4.6673 4.646833 7.001461 10.29139 7.001461 16.929578 0 28.550243 10.17064 52.949956 30.509874 73.201186 20.340257 20.250206 44.847417 30.375821 73.522504 30.375821 6.668886 0 12.338003 2.323928 17.005302 6.971785C533.673625 562.935322 536.006763 568.578856 536.006763 575.218066L536.006763 575.218066zM960.13546 384.002047c0-11.287067-3.333932-22.73991-10.002818-34.358529-46.681182-76.353992-109.449761-137.521097-188.30676-183.499267-78.856999-45.979194-162.132634-68.968791-249.825882-68.968791s-170.968883 23.073508-249.825882 69.216431c-78.858022 46.143946-141.625578 107.22714-188.307783 183.249581-6.668886 11.618619-10.003841 23.071462-10.003841 34.358529 0 11.287067 3.334955 22.73991 10.003841 34.358529 46.681182 76.022441 109.449761 137.104611 188.307783 183.248557 78.856999 46.143946 162.132634 69.216431 249.825882 69.216431s170.968883-23.072485 249.825882-69.216431 141.625578-107.226117 188.30676-183.248557c6.667863-11.618619 10.002818-23.071462 10.002818-34.358529L960.13546 384.002047z"  horiz-adv-x="1024" />

    
    <glyph glyph-name="bukejian" unicode="&#58979;" d="M930.048 348.04224l-90.40896 107.37152c33.90464 33.90464 62.16192 73.46176 84.7616 118.66624 5.65248 11.29984 0 28.25728-11.29984 39.55712-11.29984 5.65248-28.25728 0-39.55712-11.29984-67.80928-141.27104-209.08032-226.03264-361.6512-226.03264-152.57088 0-293.84192 84.7616-361.6512 220.38016-5.65248 16.95232-22.6048 22.6048-39.55712 11.29984-11.29984-5.65248-16.95232-22.6048-11.29984-33.90464 22.6048-45.20448 50.85696-79.10912 84.7616-113.01376L93.73696 353.6896c-11.29984-11.29984-5.65248-28.25216 5.65248-39.552 5.65248-5.65248 11.29984-5.65248 16.95232-5.65248s16.95232 5.65248 22.6048 11.29984l84.7616 101.71392c28.25728-22.59968 56.50944-39.552 90.41408-56.50432l-45.20448-129.97632c-5.65248-16.95232 0-28.25728 16.95232-33.90464h11.29984c11.30496 0 22.6048 5.65248 28.25728 16.95744l45.20448 129.96608c33.90464-16.95232 73.46176-22.59968 113.01376-28.25216v-129.9712c0-16.95744 11.30496-28.25728 28.25728-28.25728s28.25728 11.29984 28.25728 28.25728v129.9712c39.55712 0 79.10912 11.29984 118.66624 22.59968l45.20448-124.3136c5.65248-11.30496 16.95744-16.95744 28.25728-16.95744h11.29984c16.95744 5.65248 22.6048 22.6048 16.95744 33.90464l-45.2096 129.97632c33.90464 16.95744 62.16192 33.90464 90.41408 56.50432l90.40896-107.3664c5.65248-5.65248 11.30496-11.29984 22.6048-11.29984 5.65248 0 11.29984 0 16.95232 5.65248-0.01536 11.30496 5.63712 28.25728-5.66784 39.55712z"  horiz-adv-x="1024" />

    
    <glyph glyph-name="shezhi" unicode="&#58885;" d="M661.636-21.743h-0.006c-16.273 0.008-32.097 6.733-42.312 18.008-13.921 15.264-58.031 54.955-94.135 54.955-35.857 0-80.65-39.921-93.515-53.902-10.192-11.084-25.904-17.7-42.02-17.7-7.681 0-14.923 1.47-21.54 4.378l-1.16 0.503-109.745 61.374-1.092 0.761c-19.976 13.987-27.58 41.343-17.68 63.634 0.077 0.167 10.123 23.351 10.123 44.49 0 64.146-52.19 116.337-116.335 116.337h-3.89c-0.24-0.009-0.479-0.014-0.704-0.014-18.378 0-33.337 16.323-38.123 41.587-0.379 2.026-9.36 49.938-9.36 87.688 0 37.753 8.978 85.67 9.36 87.695 4.84 25.582 20.125 42.015 38.828 41.575h3.89c64.146 0 116.335 52.19 116.335 116.332 0 21.132-10.041 44.311-10.148 44.544-9.889 22.266-2.235 49.619 17.832 63.56l1.137 0.788 115.82 63.621 1.206 0.512c6.524 2.78 13.665 4.19 21.232 4.19 16.086 0 31.824-6.473 42.114-17.316 13.709-14.35 57.036-51.681 92.108-51.681 34.744 0 77.81 36.59 91.471 50.692 10.233 10.62 25.86 16.983 41.782 16.983 7.72 0 14.996-1.46 21.628-4.34l1.17-0.512 111.866-62.148 1.104-0.774c20.017-13.965 27.639-41.324 17.731-63.625-0.072-0.17-10.124-23.355-10.124-44.493 0-64.143 52.19-116.332 116.334-116.332h3.896c18.673 0.416 33.98-15.99 38.822-41.575 0.38-2.024 9.36-49.936 9.36-87.688 0-37.755-8.98-85.67-9.367-87.694-4.837-25.584-20.144-41.955-38.824-41.573h-3.887c-64.144 0-116.334-52.191-116.334-116.337 0-21.128 10.042-44.304 10.145-44.534 9.882-22.257 2.243-49.614-17.786-63.567l-1.119-0.786L683.967-17l-1.183-0.514c-6.511-2.803-13.621-4.229-21.148-4.229z m-3.455 53.594c0.506-0.332 1.946-0.896 3.455-0.896 0.062 0 0.118 0 0.17 0.004l106.28 58.74c-2.566 5.957-14.295 34.885-14.295 65.05 0 90.232 71.065 164.178 160.167 168.802 1.28 7.082 8.242 46.918 8.242 76.801 0 29.883-6.962 69.7-8.242 76.803-89.1 4.627-160.167 78.573-160.167 168.8 0 30.213 11.765 59.175 14.308 65.09l-104.555 58.089c-0.12 0.005-0.268 0.016-0.439 0.016-1.78 0-3.443-0.65-3.996-1.023-1.758-1.804-16.91-17.173-38.682-32.486-32.226-22.67-62.697-34.167-90.575-34.167-28.142 0-58.86 11.724-91.292 34.84-21.906 15.609-37.132 31.274-38.89 33.111-0.557 0.377-2.245 1.046-4.04 1.046-0.14 0-0.263-0.005-0.372-0.011l-108.299-59.482c2.6-6.033 14.283-34.909 14.283-65.025 0-90.226-71.063-164.172-160.166-168.8-1.28-7.086-8.241-46.916-8.241-76.802 0-29.88 6.96-69.695 8.248-76.795 89.094-4.63 160.16-78.572 160.16-168.801 0-30.278-11.812-59.286-14.328-65.124l102.502-57.316c0.064-0.009 0.143-0.009 0.23-0.009 1.495 0 2.914 0.55 3.423 0.877 1.916 2.055 17.223 18.262 39.277 34.425 32.866 24.09 64.1 36.3 92.836 36.3 29.004 0 60.477-12.443 93.535-36.994 22.18-16.466 37.554-32.973 39.463-35.063zM525.556 246.015c-85.424 0-154.923 69.501-154.923 154.928 0 85.424 69.5 154.924 154.923 154.924 85.428 0 154.932-69.5 154.932-154.924 0-85.427-69.504-154.928-154.932-154.928z m0 257.156c-56.368 0-102.224-45.858-102.224-102.226 0-56.372 45.857-102.231 102.224-102.231 56.373 0 102.238 45.859 102.238 102.23 0 56.369-45.863 102.227-102.238 102.227z"  horiz-adv-x="1024" />

    
    <glyph glyph-name="jiaoyin" unicode="&#58889;" d="M573.69088 671.90784c-40.3456 15.31904-81.78688 21.37088-124.70272 14.37184-53.33504-8.59136-94.91968-33.91488-120.94976-83.9424-32.16896-61.83424-39.9616-124.55424-15.58528-190.07488 6.99392-18.9184 13.5168-38.04672 19.18464-57.34912 12.45696-42.20416 5.34016-81.48992-19.4816-118.05696-16.14336-23.66976-35.53792-44.2112-56.84736-63.07328a189.64992 189.64992 0 0 1-37.48352-45.27616c-12.928-21.75488-21.37088-45.18912-24.73472-70.30272-4.36736-32.76288-0.91648-64.43008 13.28128-94.21312 18.65216-39.07584 49.52576-63.8976 90.99264-74.55232 55.66464-14.34624 108.76416-7.79264 158.0544 24.61696 28.48256 18.7136 53.98528 40.9088 77.56288 65.34656 62.72 65.08032 118.17984 136.00256 168.44288 211.00032 30.3104 45.27616 54.33856 93.85984 69.12512 146.65728 2.304 11.21792 4.95616 22.34368 6.78912 33.55648 14.01856 87.04-9.97376 161.26976-72.7552 221.98272-37.50912 36.2752-82.28352 60.86144-130.8928 79.3088z m157.6704-328.44288c-15.73376-61.50656-46.92992-112.68608-74.55232-153.92256-45.77792-68.27008-74.73152-106.96192-131.84512-166.20032-12.7488-13.22496-105.54368-131.90144-225.01888-96.45568-53.80608 15.96928-82.37568 101.73952-61.71648 149.76 34.62144 80.4864 72.90368 94.41792 100.61824 130.60096 20.03968 26.14784 39.78752 75.648 36.6848 123.60704-3.69152 56.7296-59.35616 143.62112-26.6496 221.33248 18.68288 44.42112 43.77088 89.07776 109.97248 93.76768 96.27648 6.87616 186.74176-51.29728 220.91776-84.3264 57.10848-55.2704 76.05248-122.56256 51.58912-218.1632zM289.72544 686.42816c40.43776-30.52032 93.26592-21.37088 120.71424 20.92544 12.7488 19.62496 18.18112 41.23136 18.24256 66.85184-1.06496 32.4352-12.39552 63.25248-38.72256 87.48032C350.55616 897.96096 294.8352 892.47232 264.22784 849.52576c-35.1232-49.40288-23.11168-126.32064 25.4976-163.0976z m2.06848 131.01568c17.23904 26.24 50.29376 30.72512 74.58304 10.0352 16.23552-13.87008 23.70048-31.93344 25.05728-51.23584 0.5632-15.232-2.18624-28.21632-9.32864-40.17152-15.37536-25.79456-46.63296-32.4352-71.3984-15.17056-29.80352 20.80768-38.71744 66.35008-18.91328 96.54272z m246.53824-108.25728c27.4176 14.01856 41.76384 37.66272 47.90272 63.04256 4.33664 21.84192 3.51232 39.9616-3.89632 57.46688-14.99136 35.68128-52.06528 48.8192-86.33344 30.84288-42.70592-22.43072-61.68576-83.79392-38.95808-125.96736 16.384-30.40256 50.26304-41.17504 81.28512-25.38496z m-32.46592 117.82144c19.00544 9.97376 39.552 2.688 47.90272-17.11616 4.10112-9.68192 4.54656-19.74784 2.1248-31.87712-3.36384-14.08-11.36128-27.18208-26.56256-34.944-17.1776-8.76544-35.97824-2.80576-45.04064 14.08-12.63104 23.40352-2.09408 57.40544 21.57568 69.85728z m164.51584-151.76192c24.32 10.624 37.95456 30.25408 44.5696 51.7376 4.93056 18.59584 5.16608 34.20672-0.29696 49.64352-11.008 31.4624-42.20416 44.71296-72.60672 30.99136-37.89824-17.05984-57.49248-68.85888-40.19712-106.3424 12.45184-27.008 41.02144-38.016 68.5312-26.03008z m-19.95264 99.57888c15.79008 7.11168 31.99488 0.23552 37.74976-16.11264 2.83136-7.99744 2.688-16.14336 0.11776-25.79456-3.39456-11.15648-10.50624-21.37088-23.13728-26.89024-14.2848-6.22592-29.1328-0.50176-35.62496 13.5168-9.00608 19.4816 1.1776 46.39744 20.89472 55.28064z m62.00832-145.09568c8.14592-27.89376 34.176-42.58816 62.5408-34.88768 25.11872 6.84544 41.14432 23.90528 50.67776 43.77088 7.43936 17.26464 9.94816 32.4096 6.90688 48.08192-6.08256 31.99488-34.32448 49.2032-65.78688 40.22784-39.13728-11.15648-65.6384-58.52672-54.33856-97.19296z m56.9088 63.872c15.52384 4.4288 29.48608-4.07552 32.49664-19.8656 1.50528-7.76192 0.26624-15.232-3.42528-23.76192-4.69504-9.8304-12.63104-18.24256-25.00096-21.6064-14.01856-3.80928-26.89024 3.45088-30.90432 17.20832-5.6064 19.10272 7.5008 42.50624 26.83392 48.0256z m74.1376-87.12704c-37.33504-6.05184-67.00032-46.83776-60.86144-83.70176 4.39808-26.53184 26.77248-42.8544 53.74464-38.8096 23.87968 3.59936 40.5248 17.61792 51.47136 34.85696 8.79616 15.13984 12.7488 28.77952 11.71968 43.56608-2.00192 30.06976-26.14272 48.95744-56.07424 44.08832z m18.77504-73.28768c-5.0176-7.87968-12.63104-14.22848-23.49568-15.87712-12.30848-1.85856-22.51776 5.5808-24.5248 17.7408-2.77504 16.76288 10.71616 35.38944 27.74528 38.16448 13.66528 2.21184 24.64256-6.40512 25.58976-20.15744 0.52736-6.76352-1.3312-12.96384-5.31456-19.87072z"  horiz-adv-x="1024" />

    
    <glyph glyph-name="qietu08" unicode="&#58886;" d="M360.676 513.707c-17.067 0-32.996-11.378-32.996-27.307 0-17.067 17.067-27.307 32.996-27.307 17.067 0 27.307 11.378 27.307 27.307-0 15.929-11.378 27.307-27.307 27.307zM501.76 513.707c-17.067 0-32.996-11.378-32.996-27.307 0-17.067 17.067-27.307 32.996-27.307 17.067 0 27.307 11.378 27.307 27.307 0 15.929-10.24 27.307-27.307 27.307zM683.804 381.724c-10.24 0-20.48-10.24-20.48-20.48s10.24-20.48 20.48-20.48c15.929 0 26.169 10.24 26.169 20.48 0 10.24-10.24 20.48-26.169 20.48zM573.44 381.724c-10.24 0-20.48-10.24-20.48-20.48s10.24-20.48 20.48-20.48c15.929 0 26.169 10.24 26.169 20.48-0 10.24-10.24 20.48-26.169 20.48zM512 896c-283.307 0-512-228.693-512-512s228.693-512 512-512c283.307 0 512 228.693 512 512 0 283.307-228.693 512-512 512zM425.529 275.911c-25.031 0-45.511 5.689-70.542 10.24l-70.542-35.271 20.48 60.302c-50.062 35.271-80.782 80.782-80.782 136.533 0 96.711 91.022 171.804 202.524 171.804 98.987 0 186.596-60.302 203.662-142.222-6.827 1.138-12.516 1.138-19.342 1.138-95.573 0-171.804-71.68-171.804-160.427 0-14.791 2.276-28.444 5.689-42.098-6.827 0-12.516 0-19.342 0zM729.316 198.542l14.791-50.062-54.613 30.72c-20.48-4.551-40.96-10.24-60.302-10.24-96.711 0-171.804 65.991-171.804 146.773 0 80.782 76.231 146.773 171.804 146.773 91.022 0 171.804-65.991 171.804-146.773 0-45.511-30.72-86.471-71.68-117.191z"  horiz-adv-x="1024" />

    
    <glyph glyph-name="weibiaoti--" unicode="&#58969;" d="M913.92 19.072l0.096 0.128-198.128 189.568a354.464 354.464 0 0 1 93.232 255.472C800.768 660.48 634.912 812.736 438.672 804.4 242.416 796.048 90.176 630.176 98.528 433.984c8.336-196.272 174.192-348.512 370.432-340.192a353.872 353.872 0 0 1 200.56 72.672L870.704-26.08l0.032 0.016c14.512-13.36 35.52-14.368 47.328-2.016 11.792 12.336 9.872 33.296-4.144 47.152z m-447.664 137.344c-161.392-6.848-298.288 118.864-305.184 280.24-6.848 161.376 118.848 298.32 280.256 305.184 161.408 6.848 298.336-118.88 305.168-280.256 6.928-161.376-118.832-298.256-280.24-305.168z"  horiz-adv-x="1024" />

    
    <glyph glyph-name="bianji" unicode="&#58888;" d="M350.7 339.3c-0.6-0.7-1.1-1.5-1.4-2.4l-43.1-158c-2.5-9.2 0.1-19.1 6.9-26.1 5.1-5 11.8-7.7 19-7.7 2.4 0 4.7 0.3 7.1 0.9L496 188.8c0.3 0 0.4-0.2 0.6-0.2 1.8 0 3.6 0.7 4.9 2l419.6 419.5c12.5 12.5 19.3 29.5 19.3 48 0 21-8.9 41.9-24.5 57.4l-39.6 39.7c-15.5 15.6-36.5 24.5-57.5 24.5-18.5 0-35.5-6.8-48-19.3L351.3 340.8c-0.4-0.4-0.3-1-0.6-1.5zM880 651.2l-41.7-41.6-67.6 68.6 41.1 41.1c6.5 6.5 19.1 5.6 26.5-1.9l39.7-39.7c4.1-4.1 6.5-9.6 6.5-15.1 0-4.5-1.6-8.5-4.5-11.4zM425.3 332.7l302.8 302.8 67.6-68.7-302.2-302.2-68.2 68.1zM370.1 210l21.9 80.3 58.4-58.4-80.3-21.9z m536.5 274.9c-15.9 0-28.9-12.9-29-29v-391.1c0-20.5-16.7-37.2-37.2-37.2H178.8c-20.5 0-37.2 16.7-37.2 37.2V703.2c0 20.5 16.7 37.2 37.2 37.2h426.1c16 0 28.9 13 28.9 28.9 0 15.9-13 28.9-28.9 28.9H174.4c-50 0-90.7-40.7-90.7-90.7v-647.2c0-50 40.7-90.7 90.7-90.7h670.4c50 0 90.7 40.6 90.7 90.7V456.1c-0.1 15.9-13 28.8-28.9 28.8z"  horiz-adv-x="1024" />

    
    <glyph glyph-name="pingjia-" unicode="&#58906;" d="M809.984 616.448H83.968c-12.288 0-22.528-10.24-22.528-22.528v-495.104c0-12.288 10.24-22.528 22.528-22.528h174.08v-115.2c0-8.704 5.12-16.896 13.312-20.48 3.072-1.536 6.144-2.048 9.216-2.048 5.12 0 10.752 2.048 14.848 5.632l152.576 132.096h361.984c12.288 0 22.528 10.24 22.528 22.528V593.9200000000001c0 12.288-9.728 22.528-22.528 22.528z m-37.376-487.936h-332.8c-5.12 0-10.24-2.048-14.336-5.12l-116.224-100.864v84.48c0 11.776-9.728 21.504-21.504 21.504H121.344V559.104h651.264v-430.592zM652.288 416.256h-409.6c-12.288 0-22.528 12.288-22.528 27.648 0 15.36 10.24 27.648 22.528 27.648h409.6c12.288 0 22.528-12.288 22.528-27.648 0-15.36-10.24-27.648-22.528-27.648zM541.184 240.64H247.296c-15.36 0-28.16 12.288-28.16 27.648 0 15.36 12.288 27.648 28.16 27.648h293.888c15.36 0 27.648-12.288 27.648-27.648 0-15.36-12.288-27.648-27.648-27.648zM933.376 768H220.16c-15.872 0-28.672-12.8-28.672-28.672v-88.576c0-3.584 3.072-6.144 6.144-6.144h47.104c3.584 0 6.144 3.072 6.144 6.144V704.512c0 3.584 3.072 6.144 6.144 6.144H896c3.584 0 6.144-3.072 6.144-6.144V286.72c0-3.584-3.072-6.144-6.144-6.144h-22.528c-3.584 0-6.144-3.072-6.144-6.144v-39.936c0-3.584 3.072-6.144 6.144-6.144h59.904c15.872 0 29.184 12.8 29.184 29.184V739.328c0 15.872-13.312 28.672-29.184 28.672z"  horiz-adv-x="1024" />

    
    <glyph glyph-name="mima1" unicode="&#58943;" d="M243.057226-128C166.725054-128 104.624097-64.212245 104.624097 14.190365v369.837038c0 78.388401 62.100957 142.161947 138.433129 142.161947h10.967231v98.733498C254.024457 779.462766 364.453899 896 510.894752 896c71.448375 0 137.119822-27.532764 184.920548-77.527749 47.829144-50.025432 74.156183-118.75179 74.129795-193.523015v-97.586638l2.151632-0.351162 0.791638-0.123821c0.929667-0.140059 1.804529-0.271999 2.559629-0.546027l0.422207-0.152238h5.070543c76.332172 0 138.433129-63.773546 138.433129-142.161947v-369.837038c0-78.40261-62.100957-142.190365-138.433129-142.190365H243.057226z m0.024358 616.405889c-55.497884 0-100.649668-46.824373-100.649668-104.378486v-369.837038c0-57.570352 45.151784-104.406904 100.649668-104.406904h537.909906c55.499914 0 100.651698 46.836552 100.651698 104.406904v369.837038c0 57.529755-45.163963 104.354128-100.676056 104.378486h-48.77708v1.418859H291.832276v-1.418859H243.081584zM510.894752 858.218569c-126.93408 0-219.062475-98.126576-219.062476-233.322109v-97.316669h440.386194v97.316669c0 135.195533-93.080391 233.322108-221.323718 233.322109zM507.297873 72.375758c-15.745477 0-28.555804 13.256892-28.555804 29.552456v106.288567l-1.248352 0.746981c-18.426897 11.026097-29.873171 31.474715-29.87317 53.368581 0 33.975479 26.769544 61.615825 59.675296 61.615825 32.840798 0 59.598163-27.654554 59.646879-61.646273 0-21.901985-11.434095-42.350604-29.844752-53.364521l-1.248353-0.746981V101.926184c0.00203-16.293534-12.806267-29.550426-28.551744-29.550426z"  horiz-adv-x="1024" />

    
    <glyph glyph-name="yijianfankui" unicode="&#58942;" d="M871.082667 628.394667h-27.306667V811.349333C843.776 857.770667 805.546667 896 759.125333 896h-621.226666C91.477333 896 53.248 857.770667 53.248 811.349333v-854.698666c0-46.421333 38.229333-84.650667 84.650667-84.650667h733.866666c54.613333 0 98.986667 44.373333 98.986667 98.986667V529.408c-0.682667 54.613333-45.056 98.986667-99.669333 98.986667z m-549.546667 65.536h397.994667v-55.296H321.536v55.296z m0-281.941334h397.994667V356.693333H321.536v55.296z m-98.304-337.92H177.493333v55.296h45.738667v-55.296z m0 282.624H177.493333v55.296h45.738667V356.693333z m0 281.941334H177.493333v55.296h45.738667v-55.296z m98.304-564.565334v55.296h397.994667v-55.296H321.536z m585.045333-70.314666c0-36.181333-29.354667-66.218667-65.536-67.584 1.365333 6.826667 2.730667 13.653333 2.730667 20.48v607.573333c34.816-1.365333 62.805333-15.701333 62.805333-51.2v-509.269333z"  horiz-adv-x="1024" />

    
    <glyph glyph-name="dui" unicode="&#58915;" d="M512 864C249.6 864 32 646.4 32 384s217.6-480 480-480 480 217.6 480 480S774.4 864 512 864z m275.2-358.4L473.6 192c-19.2-19.2-44.8-19.2-64 0L236.8 377.6c-19.2 19.2-12.8 44.8 0 64 19.2 19.2 44.8 19.2 57.6 0L448 288l281.6 281.6c19.2 19.2 44.8 12.8 64 0 12.8-19.2 12.8-44.8-6.4-64z"  horiz-adv-x="1024" />

    
    <glyph glyph-name="xiaoxizhongxin" unicode="&#59324;" d="M958.51977506 545.05812781c3.33223712 2.22149142 6.66447425 6.66447425 6.66447423 12.2182028v74.4199625c0 53.31579403-43.31908265 94.41338528-94.41338527 94.41338529H154.33988171c-53.31579403 0-94.41338528-43.31908265-94.4133853-94.41338529v-493.17109481c0-53.31579403 43.31908265-94.41338528 94.4133853-94.41338528H867.43862689c53.31579403 0 94.41338528 43.31908265 94.41338528 96.6348767V460.64145392h-36.65460838v-272.13269871L686.38707634 372.89254292l272.13269872 172.16558489zM163.22584736 690.56581569h695.32681385c37.76535411 0 68.86623397-31.10087986 68.86623397-68.86623396v-49.9835569L512 321.79824026999995 179.88703298 552.83334775c-13.32894853 9.99671138-25.54715131 13.32894853-36.65460838 3.33223716-8.88596567-8.88596567-6.66447425-24.43640559 0-28.87938844l209.93093902-153.28290785-258.8037502-182.16229631V621.69958173c-1.11074571 37.76535411 29.99013414 68.86623397 68.86623394 68.86623396z m761.97155643-536.49017746v-7.77521996c0-37.76535411-31.10087986-68.86623397-68.86623399-68.86623396H163.22584736c-37.76535411 0-68.86623397 31.10087986-68.86623394 68.86623396v12.21820279l282.1294101 198.82348194 126.62501081-92.19189387c5.55372853-3.33223712 12.21820282-3.33223712 15.55043992 0l144.39694217 92.19189387 262.13598737-203.26646477z"  horiz-adv-x="1024" />

    
    <glyph glyph-name="wodehaoyou" unicode="&#58880;" d="M1084.864779 231.290435c-43.853913 63.844174-103.15687 111.749565-171.942956 139.353043a250.568348 250.568348 0 0 1 74.440347 83.834435 265.572174 265.572174 0 0 1 32.768 128.089044c0 140.510609-107.965217 254.753391-240.461913 254.753391a34.370783 34.370783 0 0 1-34.148174-34.504348c0-19.010783 15.36-34.459826 34.148174-34.459826 94.875826 0 172.076522-83.389217 172.076522-185.789217 0-102.533565-77.200696-185.922783-172.076522-185.922783a34.370783 34.370783 0 0 1-34.148174-34.459826v-0.133565c0-19.010783 15.36-34.504348 34.148174-34.504348 170.607304 0 309.51513-149.281391 309.515131-332.710957 0-18.966261 15.36-34.459826 34.192695-34.459826a34.370783 34.370783 0 0 1 34.192696 34.459826 416.456348 416.456348 0 0 1-72.704 236.454957m-352.968348 58.590608a459.286261 459.286261 0 0 1-116.023652 60.14887 294.733913 294.733913 0 0 1 140.510609 251.681391c0 162.281739-130.938435 294.288696-291.884522 294.288696-161.079652 0-292.018087-132.006957-292.018087-294.422261 0-55.206957 15.36-109.122783 44.343652-155.870609a293.62087 293.62087 0 0 1 97.369044-96.389565c-42.028522-14.469565-81.608348-34.905043-117.938087-60.905739a471.129043 471.129043 0 0 1-103.735652-101.64313A466.587826 466.587826 0 0 1 0.003562-93.540174c0-18.966261 15.36-34.459826 34.192695-34.459826a34.370783 34.370783 0 0 1 34.192696 34.459826c0 106.184348 41.138087 206.402783 115.756522 281.911652 74.395826 75.375304 172.877913 116.825043 277.370435 117.003131 3.428174-0.311652 6.90087 0 10.373565 0.712348l2.760348 0.578782c101.687652-2.048 197.142261-43.364174 269.801739-117.00313a398.558609 398.558609 0 0 0 115.622956-281.867131c0-19.010783 15.315478-34.459826 34.192696-34.459826a34.370783 34.370783 0 0 1 34.148174 34.459826c0 101.954783-31.966609 198.789565-92.649739 280.264348a469.570783 469.570783 0 0 1-103.869218 101.821217M464.498866 827.080348c123.280696 0 223.632696-101.242435 223.632696-225.502609 0-124.304696-100.352-225.502609-223.632696-225.502609-123.236174 0-223.632696 101.197913-223.632696 225.502609 0 124.438261 100.396522 225.502609 223.632696 225.502609"  horiz-adv-x="1157" />

    
    <glyph glyph-name="xiangji" unicode="&#58991;" d="M816 672h-114.56l-34.72 62.24A96 96 0 0 1 576 800h-128a96 96 0 0 1-91.04-65.76L322.56 672H208A160 160 0 0 1 48 512v-384a160 160 0 0 1 160-160h608a160 160 0 0 1 160 160V512a160 160 0 0 1-160 160z m96-544a96 96 0 0 0-96-96H208a96 96 0 0 0-96 96V512a96 96 0 0 0 96 96h133.28a32 32 0 0 1 28 16l45.44 81.6a32 32 0 0 1 2.88 6.72A32 32 0 0 0 448 736h128a32 32 0 0 0 30.72-23.2 32 32 0 0 1 2.88-6.72L654.72 624a32 32 0 0 1 28-16H816a96 96 0 0 0 96-96zM224 496m-48 0a48 48 0 1 1 96 0 48 48 0 1 1-96 0ZM512 512a192 192 0 1 1 192-192 192 192 0 0 1-192 192z m0-320a128 128 0 1 0 128 128 128 128 0 0 0-128-128z"  horiz-adv-x="1024" />

    
    <glyph glyph-name="weixin" unicode="&#58884;" d="M579.791129 384.134982c-11.668473 0-23.340946-10.835582-23.340946-24.174836 0-10.837582 11.666473-21.675164 23.340946-21.675164 17.511708 0 30.016072 10.837582 30.016072 21.675164 0 13.338255-12.503364 24.174836-30.016072 24.174836zM503.088166 496.692253c18.3426 0 30.016072 11.668473 30.016072 29.181182 0 18.3426-11.673472 29.179182-30.016072 29.179181-17.507709 0-34.183527-10.837582-34.183527-29.179181-0.001-17.514708 16.675818-29.181181 34.183527-29.181182zM512.258966 895.440073C229.640949 895.440073 0.53793 666.337054 0.53793 383.719037c0-282.616017 229.10302-511.719037 511.721036-511.719037 282.616017 0 511.719037 229.10302 511.719037 511.719037C1023.979003 666.337054 794.875983 895.440073 512.258966 895.440073z m-96.711344-641.365071c-30.850963 0-53.362017 4.998346-82.542199 13.339254l-84.206981-42.524435 24.182836 71.705617c-59.196254 41.683545-94.215671 94.208672-94.215671 158.407271 0 113.388162 106.719035 200.096815 236.783015 200.096815 115.053944 0 217.604524-68.368053 237.612906-165.084397-8.336909 1.670781-15.841927 2.501673-22.511055 2.501673-113.388162 0-200.927707-85.037872-200.927706-187.588453 0-17.505709 2.501673-33.346636 6.670127-50.023454-6.670127-0.828892-14.176145-0.828892-20.846272-0.828891z m347.666504-81.704308l16.671819-60.033144-63.362709 35.849308c-24.176836-4.998346-47.522781-12.503364-71.699617-12.503363-111.72238 0-200.096815 76.700963-200.096816 171.746525s88.376435 171.748525 200.096816 171.748525c105.881144 0 200.927707-76.702963 200.927707-171.748525 0-53.355018-35.849309-100.877799-82.5372-135.060326zM338.008768 555.052616c-17.507709 0-35.849309-10.837582-35.849308-29.179181 0-17.513708 18.3406-29.186181 35.849308-29.186181 16.676818 0 30.016072 11.673472 30.016072 29.186181 0 18.3406-13.339254 29.179182-30.016072 29.179181z m372.681232-170.917634c-12.508363 0-23.345945-10.835582-23.345945-24.174836 0-10.837582 10.837582-21.675164 23.345945-21.675164 16.671818 0 29.179182 10.837582 29.179181 21.675164 0 13.338255-12.507363 24.174836-29.179181 24.174836z m0 0z"  horiz-adv-x="1024" />

    
    <glyph glyph-name="location" unicode="&#58883;" d="M512.103132 575.879021a106.221743 106.221743 0 1 0-75.507022-31.354611A106.221743 106.221743 0 0 0 512.103132 575.879021m0 63.989002a170.850635 170.850635 0 1 1 120.939214-49.911422A169.570855 169.570855 0 0 1 512.103132 639.868023zM805.172761 771.685367a407.609942 407.609942 0 0 1-586.139257 0 431.285873 431.285873 0 0 1 0-599.576948L512.103132-128l293.069629 300.108419a431.285873 431.285873 0 0 1 0 599.576948z m-44.152411-557.344207l-248.917218-255.956007-248.917217 255.956007a365.377201 365.377201 0 0 0 0 508.712565 346.82039 346.82039 0 0 0 497.834435 0 365.377201 365.377201 0 0 0 0-508.712565z"  horiz-adv-x="1024" />

    
    <glyph glyph-name="daifahuo" unicode="&#59089;" d="M97.28 330.24c17.92 0 30.72 15.36 30.72 30.72v51.2c0 17.92-15.36 30.72-30.72 30.72s-30.72-15.36-30.72-30.72v-51.2c-2.56-15.36 12.8-30.72 30.72-30.72z m468.48-102.4c5.12-2.56 12.8-5.12 17.92-5.12 10.24 0 20.48 5.12 25.6 15.36 10.24 15.36 23.04 28.16 35.84 40.96 12.8 10.24 15.36 30.72 5.12 46.08-10.24 12.8-30.72 15.36-46.08 5.12-17.92-15.36-33.28-33.28-48.64-53.76-10.24-20.48-5.12-38.4 10.24-48.64zM768 256c-17.92 0-30.72-15.36-30.72-30.72V128c0-17.92 15.36-30.72 30.72-30.72h97.28c17.92 0 30.72 15.36 30.72 30.72s-15.36 30.72-30.72 30.72h-64v64c-2.56 17.92-15.36 33.28-33.28 33.28zM1024 670.72V865.28c0 15.36-15.36 30.72-30.72 30.72H30.72C15.36 896 0 880.64 0 865.28v-192C0 655.36 15.36 640 30.72 640h33.28v-120.32c0-17.92 15.36-30.72 30.72-30.72S128 501.76 128 519.68V640h94.72v-225.28c0-12.8 7.68-23.04 17.92-28.16 10.24-5.12 23.04-5.12 33.28 2.56l110.08 81.92 110.08-81.92c5.12-5.12 12.8-5.12 17.92-5.12 5.12 0 10.24 0 15.36 2.56 10.24 5.12 17.92 15.36 17.92 28.16V640H896v-289.28c-38.4 23.04-81.92 33.28-128 33.28-25.6 0-51.2-2.56-74.24-10.24-17.92-5.12-25.6-23.04-20.48-40.96 5.12-17.92 23.04-25.6 40.96-20.48 17.92 5.12 38.4 7.68 56.32 7.68 104.96 0 192-87.04 192-192s-87.04-192-192-192c-56.32 0-107.52 25.6-143.36 64-30.72 33.28-48.64 79.36-48.64 128 0 12.8 2.56 28.16 5.12 40.96 2.56 17.92-7.68 33.28-25.6 38.4-17.92 2.56-33.28-7.68-38.4-25.6-5.12-17.92-7.68-35.84-7.68-53.76 0-46.08 12.8-89.6 33.28-128H225.28C171.52 0 128 43.52 128 97.28v153.6c0 17.92-15.36 30.72-30.72 30.72s-30.72-15.36-30.72-30.72v-153.6c0-87.04 71.68-158.72 158.72-158.72h373.76c46.08-40.96 107.52-64 168.96-64 69.12 0 133.12 25.6 181.76 74.24 48.64 46.08 74.24 110.08 74.24 179.2 0 64-23.04 122.88-64 168.96V640h30.72c17.92 0 33.28 15.36 33.28 30.72zM225.28 704H64v128h158.72v-128z m256-222.72l-76.8 58.88c-5.12 5.12-12.8 5.12-17.92 5.12-7.68 0-12.8-2.56-17.92-5.12l-76.8-58.88V832h192v-350.72z m478.72 222.72H542.72v128h414.72v-128z m0 0"  horiz-adv-x="1024" />

    
    <glyph glyph-name="shouji" unicode="&#58907;" d="M780.8-118.4H249.6c-51.2 0-92.8 41.6-92.8 92.8V796.8C156.8 848 198.4 889.6 249.6 889.6h528c51.2 0 92.8-41.6 92.8-92.8v-825.6c0-48-41.6-89.6-89.6-89.6zM249.6 857.6c-32 0-60.8-28.8-60.8-60.8v-825.6c0-32 28.8-60.8 60.8-60.8h528c32 0 60.8 28.8 60.8 60.8V796.8c0 32-28.8 60.8-60.8 60.8H249.6zM403.2 771.2h233.6v-32h-233.6zM528 41.6m-48 0a48 48 0 1 1 96 0 48 48 0 1 1-96 0Z"  horiz-adv-x="1024" />

    
    <glyph glyph-name="you1" unicode="&#58890;" d="M780.32896 885.03808001a36.8384 36.8384 0 0 0 0-52.75136001l-456.11008-448.32256L780.32896-64.35839999999996a36.864 36.864 0 0 0 0-52.75136c-14.80192-14.55104-38.81472-14.55104-53.65248001 0l-482.94911999 474.7008-0.6656 0.6656a36.83328 36.83328 0 0 0 0.6656 52.08576L726.68160001 885.03808a38.42048 38.42048 0 0 0 53.64735999 1e-8z"  horiz-adv-x="1024" />

    
    <glyph glyph-name="shoujihao" unicode="&#58962;" d="M514.9 101.5c-26.1 0-47.4-21.3-47.4-47.4 0-26.1 21.3-47.4 47.4-47.4s47.4 21.3 47.4 47.4c0.1 26.1-21.2 47.4-47.4 47.4zM748.3 848.3H281.7c-39.3 0-71.2-32-71.2-71.2v-786.3c0-39.3 32-71.2 71.2-71.2h466.7c39.3 0 71.2 32 71.2 71.2V777.1c-0.1 39.3-32.1 71.2-71.3 71.2zM274.8 815.7H755c13.5 0 30.5-17 30.5-30.5v-612.9l-541.2 1v612c0.2 13.6 17.2 30.4 30.5 30.4z m480.3-861H274.8c-13.5 0-30.5 21-30.5 34.5v149h541.2V-11c0-13.4-17-34.3-30.4-34.3z"  horiz-adv-x="1024" />

    
    <glyph glyph-name="xiangyou" unicode="&#59003;" d="M611.986286 407.917714l-243.565715 243.565715a36.571429 36.571429 0 0 0 0 51.712l20.699429 20.626285a36.571429 36.571429 0 0 0 51.712 0L730.916571 433.737143a36.571429 36.571429 0 0 0 0-51.712l-290.084571-290.084572a36.571429 36.571429 0 0 0-51.712 0l-20.699429 20.699429a36.571429 36.571429 0 0 0 0 51.712l243.565715 243.565714z"  horiz-adv-x="1024" />

    
    <glyph glyph-name="verification" unicode="&#59343;" d="M696.996 261.51199999999994l0.005-0.01-0.005 0.01z m59.905 0l-0.004-0.009 0.004 0.009z m-46.384 9.091c4.418-4.219 10.22-6.546 16.382-6.546h0.072c6.151 0 11.923 2.297 16.353 6.487 0.176 0.22 0.362 0.431 0.561 0.635l0.074 0.075 256.083 256.051c9.277 9.279 9.277 24.377-0.001 33.655-9.277 9.278-24.374 9.277-33.655 0L726.877 321.45000000000005 594.611 453.714c-9.259 9.234-24.315 9.239-33.554 0-4.494-4.481-6.964-10.435-6.964-16.774-0.001-6.341 2.47-12.298 6.956-16.773l148.905-148.939c0.204-0.207 0.39-0.415 0.563-0.625z m31.907-1.443l-0.004-0.007 0.004 0.007z m-30.955 0.007l0.005-0.01-0.005 0.01zM270.666 482.435c-13.104 0-23.767-10.677-23.767-23.8 0-13.123 10.662-23.799 23.767-23.799h191.921c13.104 0 23.767 10.677 23.767 23.8 0 13.123-10.662 23.799-23.767 23.799H270.666zM270.666 333.163c-13.104 0-23.767-10.676-23.767-23.799s10.662-23.799 23.767-23.799h191.921c13.104 0 23.767 10.677 23.767 23.799s-10.662 23.799-23.767 23.799H270.666zM174.741 736.215c-29.633 0-53.741-24.093-53.741-53.707v-597.017c0-29.614 24.108-53.707 53.741-53.707H707.75c29.633 0 53.741 24.093 53.741 53.707l-0.003 85.258c-0.047 11.947-9.805 21.666-21.751 21.666-11.947 0-21.704-9.719-21.75-21.665l-0.004-1.002v-41.608c0-18.448-1.882-32.617-11.066-41.807-9.185-9.191-23.346-11.075-41.782-11.075H217.389c-18.45 0-32.62 1.883-41.81 11.072-9.189 9.19-11.072 23.36-11.072 41.81V639.86c0 18.449 1.883 32.619 11.072 41.809 9.19 9.19 23.361 11.073 41.81 11.073h447.746c18.436 0 32.597-1.883 41.782-11.075 9.184-9.191 11.066-23.36 11.066-41.807v-96.389l0.043-10.417-0.004-0.111c0.069-11.926 9.793-21.607 21.734-21.607 11.944 0 21.669 9.685 21.735 21.614a9.198 9.198 0 0 0-0.004 0.287l0.004 149.271c0 29.614-24.108 53.707-53.741 53.707H174.741z"  horiz-adv-x="1024" />

    
    <glyph glyph-name="circle-alipay" unicode="&#58887;" d="M578.65625 244.79091797c0 0-66.65712891-53.34257813-90.91230469-67.31806641-21.30556641-12.27568359-41.315625-20.44775391-59.14072265-26.1140625-17.82685547-5.66191406-33.45292969-9.225-46.87382813-10.69365234-13.42177734-1.46777344-24.53730469-2.41259766-33.34394531-2.83271485-0.83935547-0.41835937-1.88964844-0.63017578-3.14648438-0.63017578h-10.06699218c-23.07128906 0-44.77587891 2.728125-65.11904297 8.18085938-20.34316406 5.45185547-38.06367187 13.52636719-53.16591797 24.22441406-15.09960938 10.69365234-27.05185547 24.11542969-35.86025391 40.26445313-8.80751953 16.14638672-13.21347656 34.9171875-13.21347656 56.3071289 0.42099609 18.45615234 5.45361328 35.23271484 15.09960937 50.33320313 9.646875 15.103125 22.12470703 27.89472656 37.43701172 38.38007812 15.30966797 10.48798828 32.29716797 18.45615234 50.96337891 23.91064453 18.66181641 5.45185547 37.43349609 7.75722656 56.30712891 6.9178711 18.45615234-0.83847656 36.28125-3.03837891 53.47880859-6.60410157 17.1984375-3.56660156 33.66123047-7.86357422 49.39013672-12.8961914 15.72978516-5.03613281 30.61845703-10.48798828 44.67128906-16.35908203 14.05195312-5.87460938 27.36914063-11.53564453 39.95332031-16.98925782 5.03173828-2.0953125 10.27617187-4.19414063 15.72978516-6.29033203 5.45185547-2.0953125 11.11376953-4.19414063 16.98486328-6.29033203 12.16582031 15.52060547 22.44111328 30.72480469 30.82763672 45.61435547 8.39003906 14.89130859 15.31230469 28.52138672 20.76503906 40.89462891 5.45185547 12.375 9.64599609 22.75488281 12.58417969 31.14492187 2.93730469 8.38652344 4.8234375 14.26113281 5.66191406 17.61503906h-273.05683594v30.20185547h128.97861329v69.8334961h-179.3100586v30.20185547h179.3109375v56.62529296c0 3.77666016 2.0953125 6.81416016 6.29033203 9.12128907 4.19414063 2.30800781 9.01582031 3.88037109 14.4703125 4.71884765 6.29033203 1.26035156 13.42353516 1.88964844 21.38994141 1.88964844h48.44707031v-72.35419922h184.34179688v-30.20185547h-184.34179688v-69.83349609h146.48730469c0.03251953 0.20830078 0.07294922 0.41923828 0.10458984 0.62666016v-0.62666016h-0.10458984c-2.94697266-18.69082031-7.94091797-38.40205078-14.99326172-59.14423828-5.87021484-18.03603516-14.57402344-38.58837891-26.11054687-61.65527344-11.53564453-23.06777344-26.73896484-46.76660156-45.61435547-71.09384766 0 0 144.39462891-69.06181641 296.81894531-93.39433593 25.31689453 56.14716797 39.40839844 118.44492188 39.40839844 184.03330078 0 247.52724609-200.65869141 448.1859375-448.1859375 448.1859375s-448.1859375-200.66044922-448.1859375-448.18769531 200.65869141-448.1859375 448.1859375-448.1859375c153.54052734 0 289.04150391 77.21455078 369.81123047 194.92294921-82.09248047 17.86289063-169.2703125 54.0703125-303.15410157 113.54677735zM226.32646484 264.92666016c-1.68222656-76.90253906 85.33476563-82.61630859 98.74863282-83.02851563 44.34257812-1.3640625 80.15888672 15.38525391 108.05361328 31.95263672 27.88945313 16.56826172 73.38603516 59.3578125 75.06386718 60.82558594s3.35478516 3.04101563 5.03173829 4.71884765c-12.16230469 6.71308594-24.11630859 12.89970703-35.86025391 18.5616211-11.74394531 5.66191406-71.41113281 37.70507813-124.36787109 43.18945312-100.27001953 10.38603516-126.15820313-52.82490234-126.67060547-76.2196289z"  horiz-adv-x="1024" />

    
    <glyph glyph-name="shouji1" unicode="&#58882;" d="M829.439823-34.879762V802.879772a91.007949 91.007949 0 0 1-28.671984 65.854963A100.159944 100.159944 0 0 1 731.839878 895.99972H292.096122a100.159944 100.159944 0 0 1-68.927961-27.263985A90.943949 90.943949 0 0 1 194.560177 802.879772v-837.759534a90.943949 90.943949 0 0 1 28.671984-65.854963A100.159944 100.159944 0 0 1 292.096122-127.99971h439.871756a100.159944 100.159944 0 0 1 68.927961 27.263985 90.943949 90.943949 0 0 1 28.543984 65.855963z m-40.959977 0.064a50.367972 50.367972 0 0 0-15.807991-36.15998 58.879967 58.879967 0 0 0-40.703977-16.063991H292.096122a58.879967 58.879967 0 0 0-40.703977 15.999991 50.367972 50.367972 0 0 0-15.871991 36.22398V802.814772a50.367972 50.367972 0 0 0 15.807991 36.15998 58.879967 58.879967 0 0 0 40.767977 16.063991H731.839878a58.879967 58.879967 0 0 0 40.767977-15.999991v-0.064a50.367972 50.367972 0 0 0 15.871991-36.15998zM590.719956 799.166774H433.344044a15.359991 15.359991 0 0 1 0-30.719983h157.247912a15.359991 15.359991 0 0 1 0 30.719983z m-78.463956-747.519584h-0.704a40.511977 40.511977 0 0 1-40.511977-39.999978 39.999978 39.999978 0 0 1 25.279986-36.990979 41.599977 41.599977 0 0 1 44.671975 8.703995 39.295978 39.295978 0 0 1 8.895995 43.519976 40.959977 40.959977 0 0 1-37.631979 24.767986z"  horiz-adv-x="1024" />

    
    <glyph glyph-name="mima" unicode="&#59085;" d="M508.928 788.48c120.32 0 217.6-97.28 217.6-217.6v-67.072H291.84V570.88C291.84 691.2 388.608 788.48 508.928 788.48m0 50.176c-147.456 0-267.776-120.32-267.776-267.776v-117.248h535.552V570.88c0 147.456-120.32 267.776-267.776 267.776zM809.984 453.632v-368.128c0-55.296-45.056-100.352-100.352-100.352H308.224c-55.296 0-100.352 45.056-100.352 100.352V453.632h602.112m50.176 50.176H157.696v-418.304c0-83.456 67.072-150.528 150.528-150.528h401.408c83.456 0 150.528 67.072 150.528 150.528V503.808zM517.632 286.72c13.312 0 25.088-11.776 25.088-25.088v-100.352c0-13.312-11.776-25.088-25.088-25.088s-25.088 11.776-25.088 25.088v100.352c0 13.312 11.776 25.088 25.088 25.088z"  horiz-adv-x="1024" />

    
    <glyph glyph-name="shoucangjia" unicode="&#58900;" d="M858.3 815.5H387.8c-40.4 43.2-135.4 67-188.8 67-94.9 0-175.7-70.5-188.8-164.3-5.6-16-8.3-31.3-8.3-46.7V68c0-98.7 80.3-179.1 179.1-179.1h695.4c82 0 148.7 66.7 148.7 148.7v611c0 92.1-74.8 166.9-166.8 166.9z m0-30.4c60 0 110.5-39.2 128.7-93.2H628.8l-183.4 93.2h412.9z m136.5-747.4c0-65.3-53.1-118.4-118.4-118.4H181C99-80.79999999999995 32.2-14 32.2 68V671.5c0 12.3 2.3 24.7 7 38l0.8 3.2c10.5 79.4 78.7 139.4 159 139.4 56.2 0 142.8-26.7 170-61.2l4.6-5.8h2.6l242.2-120.3h374.8c0.6-5.3 1.6-10.6 1.6-16.1v-611zM203 56h790.7v-27.8H203zM110.2 56h30.3v-30.3h-30.3zM368.1 315.9l-20.3-111.2c-1.9-10.7 2.3-21.3 11-27.8 8.8-6.5 20.1-7.4 29.8-2.5l98.7 51.6 99.5-53.6c4.3-2.3 8.9-3.4 13.5-3.4 5.7 0 11.5 1.8 16.4 5.3 8.8 6.3 13.3 16.8 11.6 27.6l-18.6 109.8 81.8 78c7.8 7.5 10.7 18.6 7.5 29-3.3 10.4-12 17.8-22.7 19.5l-110.2 16.3-49 101.9c-4.7 9.8-14.4 15.9-25.2 16.1-9.7 0.5-20.7-5.8-25.6-15.5l-49.6-99.7-112-15.1c-10.7-1.5-19.6-8.8-23.1-19.1s-0.8-21.4 6.9-29.1l79.6-78.1z m52.7 111.2c9.2 1.2 17.2 6.9 21.5 15.3l49.2 97.2 47.2-98.3c4.1-8.4 12-14.3 21.2-15.7l107.7-16.8-78.8-75.2c-6.7-6.4-9.9-15.7-8.4-25l18.5-108.3-97.2 52.4c-4.2 2.3-8.8 3.4-13.4 3.4-4.4 0-8.9-1-13-3.1l-97-49.7 19.6 107.3c1.7 9.2-1.3 18.6-7.9 25.1l-77.2 76.9 108 14.5z"  horiz-adv-x="1025" />

    
    <glyph glyph-name="qingchu" unicode="&#59086;" d="M983.771429 583.241143c-25.746286 61.001143-62.756571 115.712-109.714286 162.669714s-101.814857 83.968-162.669714 109.714286C648.192 882.395429 581.046857 896 512 896s-136.192-13.604571-199.241143-40.228571c-61.001143-25.746286-115.712-62.756571-162.669714-109.714286-46.957714-46.957714-83.968-101.814857-109.714286-162.669714C13.604571 520.192 0 453.046857 0 384s13.604571-136.192 40.228571-199.241143c25.746286-61.001143 62.756571-115.712 109.714286-162.669714s101.814857-83.968 162.669714-109.714286c63.195429-26.770286 130.194286-40.228571 199.241143-40.228571s136.192 13.604571 199.241143 40.228571c61.001143 25.746286 115.712 62.756571 162.669714 109.714286s83.968 101.814857 109.714286 162.669714c26.770286 63.195429 40.228571 130.194286 40.228572 199.241143s-13.312 136.192-39.936 199.241143zM512-92.745143C249.124571-92.745143 35.254857 121.124571 35.254857 384S249.124571 860.745143 512 860.745143 988.745143 646.875429 988.745143 384 774.875429-92.745143 512-92.745143zM537.014857 384l174.372572 174.372571c6.875429 6.875429 6.875429 18.139429 0 25.014858-6.875429 6.875429-18.139429 6.875429-25.014858 0L512 409.014857 337.627429 583.387429c-6.875429 6.875429-18.139429 6.875429-25.014858 0-6.875429-6.875429-6.875429-18.139429 0-25.014858L486.985143 384 312.612571 209.627429c-6.875429-6.875429-6.875429-18.139429 0-25.014858 3.510857-3.510857 7.899429-5.12 12.434286-5.12 4.534857 0 9.069714 1.755429 12.434286 5.12L512 358.985143l174.372571-174.372572c3.510857-3.510857 7.899429-5.12 12.434286-5.12 4.534857 0 9.069714 1.755429 12.434286 5.12 6.875429 6.875429 6.875429 18.139429 0 25.014858L537.014857 384z"  horiz-adv-x="1024" />

    
    <glyph glyph-name="start" unicode="&#58881;" d="M511.232009 829.587428L616.888374 488.863303 958.801581 488.863303 682.188612 278.28326000000004 787.844977-62.44188799999995 511.232009 148.13917800000002 234.618017-62.44188799999995 340.275405 278.28326000000004 63.662437 488.863303 405.57462 488.863303Z"  horiz-adv-x="1024" />

    
    <glyph glyph-name="lianxikefu" unicode="&#59008;" d="M527.881832 191.90546500000005c-160.330871 0-290.410635 130.079764-290.410636 290.410635s130.079764 290.410635 290.410636 290.410636 290.410635-130.079764 290.410635-290.410636-130.836041-290.410635-290.410635-290.410635z m0 506.706056c-119.491876 0-216.295421-96.803545-216.295421-216.295421s96.803545-216.295421 216.295421-216.295421 216.295421 96.803545 216.295421 216.295421-96.803545 216.295421-216.295421 216.295421zM895.432792 179.04874400000006c-31.763663 27.225997-66.552437 50.670606-104.366322 68.064993l-1.512556-3.781388-11.344165 11.344165c-64.283604-66.552437-158.818316-104.366322-258.646972-104.366322-97.559823 0-189.825702 36.301329-254.109306 100.584934l-2.268833 6.050221c-105.1226-43.107829-189.825702-130.836041-232.93353-242.008863-15.125554-39.32644-24.957164-80.165436-27.982275-121.004431L0-126.48744499999998l17.394387-1.512555H1043.66322v5.293944c-4.537666 113.441654-58.233383 223.858198-148.230428 301.7548zM85.45938-53.88478599999996c3.781388 13.612999 7.562777 27.225997 12.85672 40.838996 29.49483 76.384047 83.190547 139.911374 149.742984 179.237814 74.871492-58.233383 170.918759-90.753323 270.747415-90.753324 99.828656 0 195.119645 31.763663 269.23486 89.240768 20.419498-12.100443 40.082718-25.713442 58.233383-41.595273 55.208272-47.645495 93.778434-110.416544 111.929098-176.968981H85.45938zM946.859675 595.001477c-4.537666 4.537666-10.587888 9.075332-16.638109 13.612999-57.477105 167.137371-215.539143 287.385524-401.583457 287.385524-181.506647 0-336.543575-114.197932-397.04579-275.285081-28.738552-13.612999-57.477105-41.595273-65.039882-98.316101-5.293944-40.838996 7.562777-82.434269 36.30133-111.172821 18.906942-18.906942 46.889217-34.788774 86.971935-34.032496v256.378139h-5.293944c61.258493 128.567208 192.094535 217.807976 343.350074 217.807976 153.524372 0 285.872969-91.509601 345.618907-223.10192-4.537666 0.756278-9.83161 0.756278-15.125554 0.756277V372.655835s108.903988-5.293944 124.029542 111.172821c6.050222 40.838996-6.050222 82.434269-35.545052 111.172821z"  horiz-adv-x="1044" />

    
    <glyph glyph-name="xuanze" unicode="&#59344;" d="M512 384m-512 0a512 512 0 1 1 1024 0 512 512 0 1 1-1024 0ZM832 540.1600000000001L453.12 161.27999999999997s0-2.56-2.56-2.56c-12.8-12.8-33.28-17.92-51.2-10.24-7.68 2.56-12.8 5.12-17.92 10.24-2.56 2.56-2.56 5.12-2.56 5.12l-189.44 186.88c-17.92 17.92-17.92 46.08 0 64s46.08 17.92 64 0l158.72-158.72 350.72 348.16c17.92 17.92 51.2 17.92 69.12 0 20.48-12.8 20.48-46.08 0-64z"  horiz-adv-x="1024" />

    


  </font>
</defs>
</svg>
